<?xml version="1.0" standalone="no"?>
<!DOCTYPE svg PUBLIC "-//W3C//DTD SVG 20010904//EN"
 "http://www.w3.org/TR/2001/REC-SVG-20010904/DTD/svg10.dtd">
<svg version="1.0" xmlns="http://www.w3.org/2000/svg"
 width="662.000000pt" height="1280.000000pt" viewBox="0 0 662.000000 1280.000000"
 preserveAspectRatio="xMidYMid meet">
<metadata>
Created by potrace 1.15, written by Peter Selinger 2001-2017
</metadata>
<g transform="translate(0.000000,1280.000000) scale(0.100000,-0.100000)"
fill="#88104a" stroke="none">
<path d="M5855 12735 c-286 -35 -974 -118 -1530 -184 -555 -67 -1029 -124
-1052 -127 l-43 -6 0 -3637 c0 -2264 -4 -3700 -10 -3806 -36 -621 -147 -1062
-325 -1287 -141 -180 -424 -298 -804 -337 -130 -14 -604 -14 -821 -1 -319 19
-533 66 -1115 241 -72 21 -136 39 -142 39 -10 0 -13 -35 -13 -144 l0 -144 161
-648 c88 -357 178 -721 199 -809 21 -88 117 -477 213 -865 96 -388 183 -739
192 -780 10 -41 21 -79 25 -83 8 -9 493 -93 695 -121 389 -53 983 -43 1475 25
1646 229 2746 1115 3265 2629 202 590 307 1183 377 2135 8 117 12 1198 15
4068 l4 3907 -123 -1 c-84 -1 -286 -21 -643 -64z"/>
</g>
</svg>
